<svg width="1600" height="900" viewBox="0 0 1600 900" fill="none" xmlns="http://www.w3.org/2000/svg" role="img" aria-labelledby="title desc">
  <title id="title">Yandex Ultimate MCP abstract hero</title>
  <desc id="desc">Minimal abstract gateway graphic with red, black and white geometric nodes.</desc>
  <rect width="1600" height="900" rx="48" fill="#F7F5F1"/>
  <circle cx="1308" cy="156" r="210" fill="#F23B35" fill-opacity="0.08"/>
  <circle cx="246" cy="742" r="245" fill="#111111" fill-opacity="0.04"/>
  <path d="M282 625C430 452 552 397 718 448C886 500 966 430 1106 268" stroke="#111" stroke-width="2" stroke-opacity="0.12"/>
  <path d="M369 309C508 397 638 393 759 309C916 201 1059 226 1234 359" stroke="#F23B35" stroke-width="3" stroke-opacity="0.42"/>
  <g filter="url(#shadow)">
    <rect x="612" y="288" width="376" height="324" rx="52" fill="#111111"/>
    <rect x="634" y="310" width="332" height="280" rx="38" stroke="#F7F5F1" stroke-opacity="0.14" stroke-width="2"/>
    <circle cx="800" cy="450" r="72" fill="#F23B35"/>
    <path d="M769 418H833L802 483H738L769 418Z" fill="#F7F5F1"/>
    <path d="M826 418H858L827 483H795L826 418Z" fill="#F7F5F1" fill-opacity="0.55"/>
  </g>
  <g stroke="#111" stroke-width="2" stroke-opacity="0.25">
    <path d="M612 383H468"/><path d="M612 450H407"/><path d="M612 517H488"/>
    <path d="M988 383H1132"/><path d="M988 450H1193"/><path d="M988 517H1112"/>
  </g>
  <g>
    <circle cx="421" cy="383" r="48" fill="#fff" stroke="#111" stroke-opacity="0.12"/>
    <circle cx="369" cy="450" r="38" fill="#F23B35" fill-opacity="0.9"/>
    <circle cx="444" cy="517" r="42" fill="#fff" stroke="#111" stroke-opacity="0.12"/>
    <circle cx="1179" cy="383" r="48" fill="#fff" stroke="#111" stroke-opacity="0.12"/>
    <circle cx="1231" cy="450" r="38" fill="#F23B35" fill-opacity="0.9"/>
    <circle cx="1156" cy="517" r="42" fill="#fff" stroke="#111" stroke-opacity="0.12"/>
  </g>
  <text x="800" y="708" text-anchor="middle" fill="#111" font-family="Inter, ui-sans-serif, system-ui, -apple-system, BlinkMacSystemFont, Segoe UI, sans-serif" font-size="76" font-weight="800" letter-spacing="-2">Yandex Ultimate MCP</text>
  <text x="800" y="764" text-anchor="middle" fill="#111" fill-opacity="0.58" font-family="Inter, ui-sans-serif, system-ui, -apple-system, BlinkMacSystemFont, Segoe UI, sans-serif" font-size="28" font-weight="500">один gateway · Direct · Metrika · Webmaster · Cloud · Maps · Tracker</text>
  <defs>
    <filter id="shadow" x="552" y="238" width="496" height="444" filterUnits="userSpaceOnUse" color-interpolation-filters="sRGB">
      <feDropShadow dx="0" dy="22" stdDeviation="24" flood-color="#111111" flood-opacity="0.18"/>
    </filter>
  </defs>
</svg>
